<?xml version="1.0" encoding="UTF-8"?>
<svg id="Layer_1" data-name="Layer 1" xmlns="http://www.w3.org/2000/svg" viewBox="0 0 128 128">
  <defs>
    <style>
      .cls-1 {
        fill: #fff;
      }
    </style>
  </defs>
  <path class="cls-1" d="m110.11,27.33h-20.73l-24.37-11.5c-.64-.3-1.37-.3-2.01,0l-24.37,11.5h-20.73c-1.31,0-2.36,1.06-2.36,2.36v80.34c0,1.31,1.06,2.36,2.36,2.36h92.22c1.31,0,2.36-1.06,2.36-2.36V29.69c0-1.31-1.06-2.36-2.36-2.36Zm-46.11-6.75l14.31,6.75h-28.62l14.31-6.75Zm43.75,87.09H20.25V32.05h87.49v75.62Zm-36.79-61.84v48.06c0,1.31,1.06,2.36,2.36,2.36h21.84c1.31,0,2.36-1.06,2.36-2.36v-48.06c0-1.31-1.06-2.36-2.36-2.36h-21.84c-1.31,0-2.36,1.06-2.36,2.36Zm4.72,2.36h17.12v43.33h-17.12v-43.33Zm-14.46-2.36v19.08c0,1.31-1.06,2.36-2.36,2.36h-26.03c-1.31,0-2.36-1.06-2.36-2.36v-19.08c0-1.31,1.06-2.36,2.36-2.36h26.03c1.31,0,2.36,1.06,2.36,2.36Zm0,35.62v12.43c0,1.31-1.06,2.36-2.36,2.36h-26.03c-1.31,0-2.36-1.06-2.36-2.36v-12.43c0-1.31,1.06-2.36,2.36-2.36h26.03c1.31,0,2.36,1.06,2.36,2.36Z"/>
</svg>