<?xml version="1.0" encoding="UTF-8"?>
<svg id="Layer_1" data-name="Layer 1" xmlns="http://www.w3.org/2000/svg" viewBox="0 0 128 128">
  <defs>
    <style>
      .cls-1 {
        fill: #fff;
      }
    </style>
  </defs>
  <path class="cls-1" d="m112.31,28.59l-16.23,58.27c-.17.6-.57,1.11-1.11,1.42-.36.2-.76.3-1.16.3-.21,0-.42-.03-.63-.09l-2.33-.65c-1.26-.35-1.99-1.65-1.64-2.91.35-1.25,1.64-1.99,2.91-1.64l.06.02,14.96-53.72-33.85-9.43-.26.92c-.35,1.26-1.63,1.99-2.91,1.64-1.26-.35-1.99-1.65-1.64-2.91l.89-3.2c.17-.6.57-1.12,1.11-1.43.55-.31,1.19-.39,1.79-.22l38.4,10.7c.6.17,1.12.57,1.43,1.11.31.54.39,1.19.22,1.79Zm-30.04-1.55l-39.86-.39h-.02c-1.29,0-2.35,1.04-2.36,2.34l-.08,7.67c-.01,1.3,1.03,2.37,2.34,2.38,1.19-.16,2.37-1.03,2.38-2.34l.06-5.31,35.14.34-.57,58.21h-1.62s-.01-.01-.02-.01c-1.3,0-2.35,1.04-2.36,2.34,0,1.31,1.04,2.37,2.34,2.38l3.98.03h.02c1.3,0,2.35-1.04,2.36-2.34l.62-62.93c0-.63-.24-1.23-.67-1.68-.44-.45-1.04-.7-1.67-.71Zm-10.02,73.57c.32,1.26-.43,2.55-1.7,2.88l-37.06,9.54c-.19.05-.39.07-.59.07-.42,0-.83-.11-1.2-.33-.54-.32-.93-.84-1.09-1.45l-14.94-58.02c-.16-.61-.06-1.25.25-1.79s.84-.93,1.44-1.09l37.07-9.54c1.28-.32,2.55.44,2.88,1.7l14.94,58.02Zm-5.16-1.11l-13.76-53.45-32.49,8.36,13.76,53.45,32.49-8.37Z"/>
</svg>