<?xml version="1.0" encoding="UTF-8"?>
<svg id="Layer_1" data-name="Layer 1" xmlns="http://www.w3.org/2000/svg" viewBox="0 0 128 128">
  <defs>
    <style>
      .cls-1 {
        fill: #fff;
      }
    </style>
  </defs>
  <path class="cls-1" d="m117.35,29s0-.02,0-.04c0-.32-.06-.64-.19-.95-.49-2.91-2.91-5.17-5.95-5.17H16.8c-3.04,0-5.46,2.26-5.95,5.17-.13.3-.2.62-.19.95,0,.01,0,.02,0,.04v70.01c0,.33.14.62.19.94-.36.89-.17,1.94.58,2.62.25.23.53.38.83.48,1.13,1.27,2.72,2.11,4.55,2.11h94.41c1.83,0,3.42-.84,4.55-2.11.3-.1.59-.25.83-.48.75-.69.93-1.73.58-2.62.05-.32.19-.61.19-.94V29Zm-34.54,33.25l29.82-27.88v60.39l-29.82-32.51ZM16.8,27.57h94.41c.47,0,.83.27,1.09.63l-48.3,45.17L15.7,28.2c.26-.36.62-.63,1.09-.63Zm-1.43,67.19v-60.4l29.84,27.91-29.84,32.49Zm1.43,5.67c-.06,0-.1-.06-.16-.07l32.03-34.87,13.72,12.83c.46.42,1.03.64,1.61.64s1.16-.21,1.61-.64l13.75-12.86,32,34.89c-.06,0-.1.07-.16.07H16.8Z"/>
</svg>