<?xml version="1.0" encoding="UTF-8"?>
<svg id="Layer_1" data-name="Layer 1" xmlns="http://www.w3.org/2000/svg" viewBox="0 0 128 128">
  <defs>
    <style>
      .cls-1 {
        fill: #fff;
      }
    </style>
  </defs>
  <path class="cls-1" d="m112.07,37.86c-1.45-.88-3.78-1.92-6.29-2.49v-4.72c0-1.18-.81-2.21-1.95-2.49-19.91-4.87-34.8,5.61-39.82,9.85-5.02-4.25-19.89-14.74-39.83-9.85-1.15.28-1.95,1.31-1.95,2.49v4.71c-2.51.57-4.84,1.61-6.29,2.49-.77.47-1.24,1.3-1.24,2.2v54.57c0,.82.4,1.6,1.06,2.08.67.49,1.53.61,2.31.36,23.11-7.68,44.51,3.62,44.72,3.74.02.01.05.02.07.03.04.02.08.04.12.06.04.02.08.03.11.05.05.02.1.04.16.05.04.01.08.03.11.04.02,0,.04,0,.06.01.03,0,.06.01.09.02.04,0,.08.02.12.02.12.02.24.03.36.03,0,0,0,0,0,0,0,0,0,0,.01,0,0,0,0,0,0,0,0,0,0,0,0,0s0,0,0,0c0,0,0,0,0,0,0,0,0,0,.01,0,0,0,0,0,0,0,.12,0,.24-.01.36-.03.04,0,.08-.01.12-.02.03,0,.06-.01.09-.02.02,0,.04,0,.06-.01.04-.01.08-.02.11-.04.05-.02.1-.03.16-.05.04-.01.08-.03.11-.05.04-.02.08-.04.12-.06.02-.01.05-.02.07-.03.21-.12,21.6-11.41,44.71-3.74.77.26,1.63.13,2.31-.36.67-.48,1.06-1.26,1.06-2.08v-54.57c0-.9-.47-1.73-1.24-2.2Zm-11.42-5.14v48.38c-14.1.11-27.51,7.89-34.08,12.38v-50.88c3.18-2.81,16.37-13.24,34.08-9.87Zm-73.3,0c17.68-3.38,30.9,7.06,34.08,9.87v50.88c-6.58-4.49-19.98-12.26-34.08-12.37v-48.38Zm-7.53,58.46v-49.58c.72-.34,1.54-.66,2.4-.92v43.06c0,.71.3,1.39.81,1.87.52.49,1.23.74,1.92.69,6.53-.41,13.08,1.22,18.84,3.51-7.04-.94-15.29-.93-23.97,1.37Zm88.36,0c-8.74-2.31-17.03-2.31-24.08-1.36,5.78-2.31,12.37-3.96,18.95-3.52.71.05,1.4-.2,1.92-.69.52-.48.81-1.16.81-1.87v-43.06c.86.26,1.68.58,2.4.92v49.58Z"/>
</svg>