<?xml version="1.0" encoding="UTF-8"?>
<svg id="Layer_1" data-name="Layer 1" xmlns="http://www.w3.org/2000/svg" viewBox="0 0 128 128">
  <defs>
    <style>
      .cls-1 {
        fill: #fff;
      }
    </style>
  </defs>
  <path class="cls-1" d="m42.65,29.52v25.26c0,2.09-1.7,3.78-3.78,3.78h-11.92c-2.09,0-3.78-1.7-3.78-3.78v-25.26c0-2.09,1.69-3.78,3.78-3.78h11.92c2.09,0,3.78,1.7,3.78,3.78Zm27.31-3.78h-11.92c-2.09,0-3.78,1.7-3.78,3.78v25.26c0,2.09,1.69,3.78,3.78,3.78h11.92c2.09,0,3.78-1.7,3.78-3.78v-25.26c0-2.09-1.69-3.78-3.78-3.78Zm31.09,0h-11.92c-2.09,0-3.78,1.7-3.78,3.78v25.26c0,2.09,1.69,3.78,3.78,3.78h11.92c2.09,0,3.78-1.7,3.78-3.78v-25.26c0-2.09-1.69-3.78-3.78-3.78Zm-62.18,43.71h-11.92c-2.09,0-3.78,1.7-3.78,3.78v25.26c0,2.09,1.69,3.78,3.78,3.78h11.92c2.09,0,3.78-1.7,3.78-3.78v-25.26c0-2.09-1.7-3.78-3.78-3.78Zm31.09,0h-11.92c-2.09,0-3.78,1.7-3.78,3.78v25.26c0,2.09,1.69,3.78,3.78,3.78h11.92c2.09,0,3.78-1.7,3.78-3.78v-25.26c0-2.09-1.69-3.78-3.78-3.78Zm31.09,0h-11.92c-2.09,0-3.78,1.7-3.78,3.78v25.26c0,2.09,1.69,3.78,3.78,3.78h11.92c2.09,0,3.78-1.7,3.78-3.78v-25.26c0-2.09-1.69-3.78-3.78-3.78Z"/>
</svg>