<?xml version="1.0" encoding="UTF-8"?>
<svg xmlns="http://www.w3.org/2000/svg" viewBox="0 0 527.15 507.76">
  <path id="base" fill="#54acdc" d="M503.15,28.35s22.39,42.24-46.53,62.8c-12.02,3.59-26.91,6.48-43.04,8.81l-59.81-59.81-25.03,25.03L263.57,0l-65.17,65.17-25.03-25.03-59.81,59.81c-16.13-2.33-31.02-5.22-43.04-8.81C1.6,70.59,23.99,28.35,23.99,28.35h0S-3.8,45.76,.44,70.39c8.86,51.45,102.49,64.73,162.58,69.99,36.18,3.17,64.74,4.51,81.93,5.07v92.05c-11.96,13.05-25.17,24.94-39.46,35.47,22.16,16.33,41.74,35.91,58.07,58.07,16.33-22.16,35.91-41.74,58.07-58.07-14.29-10.53-27.5-22.42-39.46-35.47v-92.05c17.19-.56,45.75-1.9,81.93-5.07,60.1-5.26,153.73-18.54,162.59-69.99,4.24-24.62-23.55-42.04-23.55-42.04ZM158.69,104.88c-9.99-.85-20.05-1.85-29.84-3.03l44.52-44.52,16.44,16.44-31.11,31.11Zm15.94,1.24l23.76-23.76,26.39,26.39c-14.54-.52-31.94-1.34-50.15-2.63Zm105.35,1.46l-16.41-16.41-16.41,16.41-14.3-14.3,30.72-30.72,30.72,30.72-14.3,14.3Zm22.34,1.2l26.43-26.43,23.83,23.83c-18.3,1.28-35.76,2.09-50.25,2.6Zm66.21-3.82l-31.19-31.19h0l16.44-16.44,44.62,44.62c-9.81,1.17-19.87,2.16-29.87,3.01Z"/>
  <g id="lights">
    <g id="light_4">
      <path fill="#54acdc" d="M111.75,224.46s0,0,0,0c0,0,0,0,0,0,2.29,.03,3.2-3.03,1.24-4.24h0c-14.38-8.59-30.09-14.54-45.93-19.68-11.87-3.81-23.97-6.86-36.44-7.93-3.15-.26-6.33-.46-9.58-.39-1.08,.02-2.17,.07-3.28,.15-1.3,.1-2.27,1.23-2.18,2.53,.05,.7,.42,1.32,.94,1.71,3.53,2.65,7.22,4.75,10.95,6.72,18.52,9.55,38.86,14.53,59.23,18.38,8.28,1.44,16.56,2.59,25.03,2.76Z"/>
      <path fill="#54acdc" d="M66.63,367.85c-1.58,1.45-.38,3.93,1.5,3.92,.27,0,.55-.05,.84-.17,19.23-7.97,37.21-18.51,54.76-29.58,13.11-8.34,25.99-17.08,38.39-26.48,4.14-3.15,8.23-6.36,12.2-9.78,1.65-1.44,.42-3.99-1.49-3.94-.27,0-.56,.07-.85,.19h0c-28.36,12.85-55.14,28.96-80.75,46.61-8.49,6.03-16.82,12.24-24.61,19.23Z"/>
      <path fill="#54acdc" d="M266.12,369.46c-.82-6.22-1.78-12.4-3.21-18.53-.28-1.17-1.28-1.74-2.26-1.72-.98,.03-1.95,.65-2.15,1.85-3.88,24.58-2.97,49.81-1.88,74.58,1.22,24.85,2.88,49.65,6.4,74.33,.16,1.06,1.04,1.84,2.08,1.9,.15,0,.3,0,.45-.02,1.04-.15,1.8-1.01,1.89-2.01,1.08-12.45,1.5-24.89,1.79-37.32,.33-15.41,.24-31.15-.08-46.57-.31-15.45-1.01-31.17-3.03-46.48Z"/>
      <path fill="#54acdc" d="M504.43,318.92c-2.74-1.58-5.54-2.97-8.34-4.3-19.44-9.08-40.04-15.38-60.85-20.3-23.85-5.52-48.06-10.08-72.63-10.81,0,0,0,0,0,0,0,0,0,0,0,0-2.34-.03-3.21,3.19-1.07,4.29,22.03,10.9,45.55,18.27,69.19,24.6,23.69,6.11,48.03,11,72.63,10.81h0c1.27-.04,2.26-1.11,2.22-2.37-.03-.82-.49-1.53-1.15-1.91Z"/>
    </g>
    <g id="light_3">
      <path fill="#54acdc" d="M165.13,352.2c-.36-.01-.74,.06-1.12,.25h0s0,0,0,0h0c-11.29,5.84-21.59,13.39-31.45,21.28-24.12,19.86-45.61,42.69-64.33,67.71-3.74,5.12-7.38,10.34-10.59,15.85-.63,1.1-.25,2.5,.85,3.13,.36,.21,.76,.31,1.14,.3,.39,0,.77-.1,1.11-.29,2.82-1.57,5.51-3.27,8.18-5,7.88-5.17,15.51-10.85,22.83-16.73,25.36-20.77,49.23-43.64,67.86-70.78,2.69-4.01,5.25-8,7.5-12.34,.82-1.58-.42-3.34-1.99-3.4Z"/>
      <path fill="#54acdc" d="M105.79,267.9c1.31,.01,2.61,.01,3.92,.01,19.61-.03,39.34-1.44,58.57-5.6,2.98-.65,5.95-1.38,8.93-2.32,2.12-.66,2.16-3.75,0-4.42h0c-19.38-5.63-45.29-8.13-71.25-7.96-25.97,.16-51.99,2.98-71.58,7.96-1.22,.34-1.93,1.61-1.59,2.83,.22,.8,.85,1.38,1.59,1.59,2.98,.84,5.95,1.49,8.93,2.1,20.57,4.08,41.6,5.57,62.49,5.8Z"/>
      <path fill="#54acdc" d="M445.49,433.29c-13.73-18.27-29.38-34.96-46.13-50.43-10.61-9.61-21.86-18.57-34.11-26.1-2.49-1.52-5.03-2.99-7.71-4.31-.37-.19-.75-.26-1.11-.24-1.56,.07-2.84,1.82-1.98,3.41h0c18.28,33.37,64.84,75.88,97.75,95.22,.37,.21,.76,.3,1.13,.3,1.6-.02,2.94-1.83,1.96-3.46-3.02-5.05-6.37-9.75-9.81-14.38Z"/>
      <path fill="#54acdc" d="M481.85,199.49c3.22-1.6,6.4-3.31,9.48-5.42,1.06-.73,1.33-2.18,.6-3.24-.42-.62-1.1-.97-1.8-1.01-.93-.05-1.86-.07-2.77-.08-2.75-.01-5.45,.16-8.14,.4-15.93,1.46-31.34,5.9-46.31,11.34-8.38,3.18-16.6,6.62-24.33,11.28-1.95,1.2-1.09,4.25,1.2,4.25h0s0,0,0,0h0c10.79-.1,21.34-1.9,31.83-4.15,13.83-3.07,27.48-7.09,40.24-13.38Z"/>
    </g>
    <g id="light_2">
      <path fill="#54acdc" d="M231.14,365.5c-.72,.02-1.43,.36-1.87,1.11h0c-11.93,21.13-19.29,44.32-25.4,67.64-5.92,23.34-10.98,47.03-12.58,71.14-.07,1.48,1.17,2.4,2.39,2.36,.73-.02,1.45-.39,1.87-1.2,10.9-21.57,18.61-44.53,25.4-67.64,5.04-17.3,9.13-34.91,11.3-52.85,.71-6.02,1.28-12.08,1.28-18.3,0-1.43-1.2-2.31-2.4-2.28Z"/>
      <path fill="#54acdc" d="M341.04,305.4c-1.84,.13-2.92,2.58-1.3,3.97h0s0,0,0,0h0c14.56,12.07,30.73,21.93,47.16,31.15,12.33,6.84,25.01,13.08,38.14,18.32,4.43,1.73,8.87,3.4,13.47,4.73,.15,.04,.3,.07,.45,.08,1.05,.08,2.05-.58,2.35-1.64,.25-.87-.05-1.76-.68-2.32-3.59-3.16-7.38-6.01-11.22-8.82-23.02-16.36-48.04-29.78-74.13-40.54-4.4-1.75-8.82-3.43-13.41-4.83-.29-.09-.57-.12-.83-.1Z"/>
      <path fill="#54acdc" d="M321.56,465.55c-4.4-23.07-9.93-45.93-17.27-68.24-3.09-8.95-6.49-17.74-11-26.15-.43-.78-1.15-1.14-1.88-1.16-1.21-.04-2.45,.87-2.38,2.36h0s0,0,0,0c0,0,0,0,0,0h0c.53,9.52,2.22,18.79,4.24,28.05,4.21,18.31,9.88,36.22,15.97,53.99,3.14,8.89,6.41,17.72,10.26,26.35,.38,.84,1.22,1.34,2.09,1.32,.29,0,.58-.07,.87-.2,.92-.41,1.42-1.37,1.3-2.32-.59-4.71-1.37-9.36-2.21-14Z"/>
    </g>
    <g id="light_1">
      <path fill="#54acdc" d="M215.53,345.1c.42-1.6-.92-2.92-2.33-2.91-.47,0-.95,.16-1.38,.51h0c-16.48,13.71-33.94,42.14-40.52,62.55-.36,1.22,.33,2.5,1.55,2.86,.19,.06,.39,.09,.58,.09,.58,.02,1.14-.19,1.57-.55,2.46-2.11,4.66-4.38,6.81-6.69,10.49-11.56,19.45-24.4,26.62-38.25,2.82-5.65,5.44-11.47,7.09-17.61Z"/>
      <path fill="#54acdc" d="M74.01,143.96c-2.19-.64-3.91,2.11-2.28,3.78,8.81,9.03,18.48,16.87,28.44,24.45,24.87,18.37,51.05,35.19,80.01,46.37,5.88,2.19,11.83,4.26,18.18,5.66,2.13,.48,3.73-2.09,2.28-3.78h0c-27.07-31.21-87.07-64.16-126.62-76.48Z"/>
      <path fill="#54acdc" d="M108.44,298.88c1.87-1.29,.84-4.29-1.41-4.19h0s0,0,0,0h0c-16.83,1.15-32.88,6.87-48.26,13.46-5.14,2.32-10.18,4.77-14.97,7.82-1.06,.68-1.36,2.09-.68,3.15,.47,.72,1.28,1.09,2.09,1.03,0,0,0,0,0,0,0,0,0,0,0,0,2.86-.21,5.65-.64,8.42-1.12,13.72-2.55,27.12-6.56,39.92-12.12,5.16-2.31,10.19-4.8,14.89-8.04Z"/>
      <path fill="#54acdc" d="M352.11,406.04c-3.1-8.41-6.91-16.55-11.1-24.43-2.82-5.24-5.7-10.43-9.19-15.26-3.6-4.95-7.46-9.57-12.39-13.43-.41-.32-.87-.48-1.33-.49-1.38-.04-2.73,1.16-2.5,2.69h0c1.76,12.11,7.57,22.85,13.87,33.11,4.69,7.6,9.79,15,15.49,21.92,1.92,2.32,3.91,4.6,6.09,6.77,.45,.45,1.04,.67,1.62,.66,.59,0,1.17-.23,1.62-.68,.59-.59,.78-1.43,.59-2.18-.77-2.98-1.74-5.85-2.77-8.68Z"/>
      <path fill="#54acdc" d="M432.7,157.02c-.25-.02-.52,0-.8,.08h0c-9.16,2.59-17.95,6.3-26.56,10.25-21.3,10-41.57,22.06-60.27,36.37-3.76,2.94-7.45,5.93-10.93,9.24-.91,.87-.94,2.31-.06,3.22,.45,.47,1.05,.7,1.66,.7,.2,0,.4-.03,.6-.08,4.62-1.31,9.07-2.98,13.51-4.72,26.14-10.7,50.92-24.66,73.36-41.83,3.75-2.96,7.44-5.96,10.89-9.31,1.45-1.4,.4-3.77-1.39-3.92Z"/>
      <path fill="#54acdc" d="M437.04,248.96c-3.02-.85-6.04-1.44-9.05-1.97-8.98-1.54-18.09-2.26-27.16-2.5-2.27-.06-4.53-.09-6.8-.08-3.77,.02-7.54,.19-11.31,.59-6.16,.69-12.2,1.71-18.11,3.96-1.98,.76-1.98,3.67,0,4.42,10.17,3.74,20.92,4.6,31.63,4.55,1.53,0,3.06-.03,4.59-.07,9.07-.24,18.18-.97,27.16-2.5,3.02-.53,6.04-1.12,9.05-1.97,1.22-.34,1.93-1.61,1.59-2.83-.22-.8-.85-1.38-1.59-1.59Z"/>
    </g>
  </g>
</svg>