<?xml version="1.0" encoding="UTF-8"?>
<svg id="Layer_1" data-name="Layer 1" xmlns="http://www.w3.org/2000/svg" viewBox="0 0 128 128">
  <defs>
    <style>
      .cls-1 {
        fill: #fff;
      }
    </style>
  </defs>
  <path class="cls-1" d="m126.19,79.71l-21.15-13.6c-.93-.6-2.16-.47-2.95.31l-3.09,3.09c-3.64-4.78-12.37-16.88-14.76-25.71-1.79-6.64-2.67-13.72-3.37-19.4-.6-4.82-1.07-8.63-1.9-11.25-1.91-6.02-6.44-7.6-9.77-7.1-2.08.31-3.88,1.33-5.19,2.8-1.31-1.47-3.11-2.5-5.19-2.8-3.34-.51-7.85,1.08-9.77,7.09-.84,2.63-1.31,6.44-1.91,11.26-.71,5.68-1.58,12.76-3.37,19.4-2.39,8.83-11.13,20.93-14.76,25.72l-3.1-3.09c-.79-.78-2.02-.92-2.95-.31L1.81,79.71c-.6.39-1,1.02-1.07,1.73-.08.71.18,1.42.68,1.92l38.04,37.98c.45.44,1.05.69,1.67.69.08,0,.17,0,.25-.01.71-.08,1.35-.47,1.73-1.07l13.6-21.15c.6-.94.47-2.16-.32-2.95l-4.45-4.45c4.5-1.99,9.31-5.72,12.05-11.23,2.74,5.5,7.55,9.23,12.04,11.22l-4.46,4.45c-.78.79-.92,2.01-.32,2.95l13.6,21.15c.39.6,1.02.99,1.73,1.07.08,0,.17.01.25.01.62,0,1.22-.25,1.67-.69l38.05-37.98c.5-.51.76-1.21.68-1.92-.07-.71-.47-1.35-1.07-1.73Zm-85.45,36.23L6.84,82.1l17.08-10.99,3.62,3.61s.01.02.02.03l18.39,18.39s.1.06.14.1l5.63,5.62-10.98,17.08Zm20.79-44.21c0,10.41-8.6,15.5-13.19,17.07l-15.95-15.91c3.57-4.64,13.23-17.81,15.94-27.85,1.88-6.96,2.78-14.22,3.5-20.05.54-4.4,1.01-8.2,1.72-10.41.88-2.75,2.54-4.16,4.57-3.85,1.67.24,3.37,1.69,3.4,3.98.08,5.05.11,11.53.12,18.31,0,1.99,0,4,0,6.02,0,1.78,0,3.56,0,5.32-.79-.36-1.62-.59-2.49-.59-3.28,0-6.76,2.86-6.76,8.16,0,9.14-3.42,11.73-3.59,11.85-1.08.68-1.43,2.09-.79,3.2.44.75,1.23,1.17,2.04,1.17.41,0,.82-.1,1.19-.33.6-.35,5.87-3.79,5.87-15.89,0-2.23,1.05-3.44,2.04-3.44.61,0,1.07.45,1.35.83.67.91,1.04,2.43,1.04,4.26,0,.14.06.25.08.38-.02,4.54-.04,8.63-.05,11.8l-.02,5.96Zm4.95,0l-.02-5.96c-.02-3.17-.04-7.26-.05-11.8.02-.13.08-.25.08-.38,0-1.83.37-3.35,1.04-4.26.28-.38.74-.83,1.35-.83.99,0,2.03,1.2,2.03,3.44,0,12.1,5.27,15.54,5.87,15.89.37.22.77.32,1.17.32.78,0,1.54-.4,1.99-1.12.68-1.08.35-2.52-.71-3.24-.04-.03-3.6-2.54-3.6-11.86,0-5.3-3.48-8.16-6.76-8.16-.87,0-1.71.22-2.49.59,0-1.76,0-3.54,0-5.32,0-2.01,0-4.03,0-6.02,0-6.78.04-13.26.12-18.31.03-2.29,1.74-3.74,3.4-3.99.18-.03.36-.04.53-.04,1.79,0,3.24,1.39,4.04,3.89.71,2.21,1.17,6.01,1.72,10.4.72,5.83,1.62,13.09,3.5,20.05,2.72,10.05,12.37,23.21,15.94,27.85l-15.95,15.91c-4.59-1.57-13.19-6.66-13.19-17.07Zm20.78,44.21l-10.98-17.08,5.62-5.61s.11-.06.16-.11l18.39-18.39s.02-.03.03-.05l3.6-3.6,17.08,10.99-33.9,33.84Z"/>
</svg>