<?xml version="1.0" standalone="no"?>
<!DOCTYPE svg PUBLIC "-//W3C//DTD SVG 20010904//EN"
 "http://www.w3.org/TR/2001/REC-SVG-20010904/DTD/svg10.dtd">
<svg version="1.0" xmlns="http://www.w3.org/2000/svg"
 width="527.000000pt" height="527.000000pt" viewBox="0 0 527.000000 527.000000"
 preserveAspectRatio="xMidYMid meet">
<metadata>
Created by potrace 1.14, written by Peter Selinger 2001-2017
</metadata>
<g transform="translate(0.000000,527.000000) scale(0.100000,-0.100000)"
fill="#000000" stroke="none">
<path d="M2309 4854 l-326 -326 -124 126 -125 125 -299 -299 c-296 -296 -300
-300 -335 -295 -19 3 -42 7 -50 10 -8 2 -33 6 -55 9 -22 3 -65 10 -95 16 -30
7 -64 13 -75 15 -11 2 -32 8 -47 14 -16 6 -28 9 -28 6 0 -2 -37 10 -83 26 -45
17 -92 33 -104 36 -13 3 -23 9 -23 14 0 5 -6 9 -14 9 -33 0 -173 96 -224 154
-85 98 -115 224 -81 350 6 21 8 40 5 43 -2 3 -38 -28 -79 -69 -258 -255 -170
-551 228 -763 61 -32 232 -101 275 -110 8 -2 16 -4 18 -5 1 -2 5 -3 10 -4 4
-1 25 -8 47 -14 49 -15 259 -62 294 -67 14 -2 37 -6 51 -9 29 -6 91 -16 135
-22 17 -2 62 -8 100 -13 39 -5 97 -12 129 -16 33 -3 73 -8 90 -10 28 -4 107
-11 236 -20 25 -2 83 -7 130 -10 119 -9 154 -12 330 -20 153 -8 208 -11 223
-14 4 0 7 -207 7 -459 l0 -458 -92 -91 c-126 -123 -158 -152 -227 -204 -33
-24 -62 -49 -65 -56 -3 -6 28 -35 67 -65 105 -78 457 -433 457 -462 0 -3 11
-16 24 -31 l23 -25 40 52 c97 128 315 351 443 452 47 38 86 71 87 75 1 3 -30
31 -69 61 -87 68 -109 87 -226 203 l-93 91 3 461 3 460 25 1 c166 7 364 16
400 19 25 3 83 7 130 10 47 3 112 7 145 10 33 3 87 8 120 11 33 3 77 7 98 10
20 2 61 6 90 9 28 3 70 7 92 10 22 3 54 8 70 9 28 4 82 11 150 22 17 2 64 11
105 19 41 8 86 17 100 19 14 3 25 5 25 6 0 1 9 3 20 5 44 7 81 16 105 24 14 5
39 13 55 17 17 4 32 8 35 9 107 27 384 149 420 185 3 3 23 18 44 35 138 102
223 259 213 392 -7 94 -51 178 -141 268 -41 41 -80 75 -87 75 -8 0 -8 -4 -1
-13 15 -17 30 -116 25 -164 -16 -167 -136 -301 -353 -391 -77 -31 -107 -43
-125 -48 -5 -1 -44 -11 -85 -22 -77 -21 -205 -47 -275 -58 -22 -3 -51 -7 -65
-9 -22 -4 -66 36 -325 295 l-299 299 -125 -125 -125 -125 -325 325 -326 326
-326 -326z m-496 -329 c42 -41 77 -78 77 -83 0 -4 -69 -76 -152 -159 -145
-144 -155 -152 -188 -148 -19 2 -66 6 -105 10 -92 10 -127 13 -144 14 -13 1
416 441 430 441 3 0 40 -34 82 -75z m1952 -145 c156 -157 214 -220 200 -221
-11 0 -29 -2 -40 -4 -11 -1 -49 -6 -85 -9 -36 -4 -85 -9 -109 -12 l-45 -5
-153 153 c-84 84 -153 156 -153 160 0 11 144 156 155 157 6 0 109 -98 230
-219z m-975 19 l152 -152 -71 -71 -71 -71 -78 78 c-42 42 -82 77 -87 77 -5 0
-45 -35 -87 -77 l-78 -78 -71 71 -71 71 152 151 c84 84 154 152 155 152 2 0
72 -68 155 -151z m-689 -162 c161 -159 156 -146 57 -141 -198 10 -334 18 -402
23 -10 1 214 230 225 231 4 0 58 -51 120 -113z m1306 -2 c64 -63 111 -116 107
-116 -22 -3 -195 -14 -387 -23 -90 -5 -97 -4 -85 11 24 30 239 243 245 243 3
0 57 -52 120 -115z"/>
<path d="M714 3726 c-7 -18 77 -104 182 -186 11 -8 33 -26 50 -40 38 -31 58
-46 164 -120 47 -33 90 -64 96 -69 62 -51 406 -240 539 -296 68 -29 213 -75
235 -75 44 0 34 31 -31 96 -140 139 -359 296 -599 431 -118 65 -333 173 -355
177 -5 1 -26 9 -45 18 -19 8 -53 22 -75 31 -137 53 -152 56 -161 33z"/>
<path d="M4250 3586 c-36 -13 -85 -31 -110 -41 -51 -21 -342 -166 -350 -175
-3 -3 -27 -19 -55 -35 -142 -81 -390 -266 -398 -297 -12 -41 49 -29 223 47 89
38 255 121 312 154 18 11 47 28 63 37 96 54 283 185 353 249 19 16 40 33 47
37 15 9 8 48 -9 48 -6 0 -40 -11 -76 -24z"/>
<path d="M4748 3275 c-2 -2 -21 -5 -43 -9 -106 -15 -219 -46 -355 -95 -220
-81 -318 -141 -256 -157 22 -5 100 -1 192 11 243 32 634 178 634 238 0 16 -8
18 -85 16 -46 -1 -86 -3 -87 -4z"/>
<path d="M165 3246 c-17 -12 -16 -14 6 -35 44 -41 205 -118 336 -161 132 -43
351 -91 478 -105 135 -15 164 -12 153 17 -5 11 -138 91 -157 94 -3 0 -28 11
-56 23 -47 22 -294 112 -305 112 -3 0 -28 7 -56 15 -28 8 -62 17 -75 19 -13 3
-35 7 -49 10 -110 22 -252 28 -275 11z"/>
<path d="M3836 2733 c-2 -2 -33 -7 -99 -17 -60 -9 -109 -33 -105 -52 3 -18 59
-40 128 -51 61 -10 372 -9 440 1 30 4 64 9 75 11 68 8 115 26 115 45 0 20 -96
42 -245 56 -58 5 -305 11 -309 7z"/>
<path d="M1037 2704 c-1 -1 -65 -4 -142 -8 -77 -3 -156 -8 -175 -11 -19 -2
-60 -7 -90 -9 -30 -3 -80 -10 -110 -16 -30 -6 -64 -13 -75 -15 -87 -13 -138
-38 -117 -56 9 -7 79 -28 112 -33 14 -2 41 -7 60 -10 72 -12 96 -16 140 -21
25 -2 72 -8 105 -11 83 -10 564 -11 650 -2 66 7 131 16 165 22 8 2 38 6 65 10
123 19 183 48 152 75 -14 11 -195 50 -267 57 -25 3 -56 7 -70 9 -33 6 -397 23
-403 19z"/>
<path d="M3610 2335 c-21 -25 25 -52 225 -130 248 -96 631 -201 840 -230 23
-3 50 -7 60 -9 35 -7 189 -19 235 -18 76 0 80 1 80 21 0 19 -87 67 -204 112
-28 11 -60 24 -71 29 -42 19 -280 93 -340 105 -11 3 -47 11 -80 19 -33 9 -71
17 -85 20 -14 3 -36 8 -50 11 -14 3 -41 8 -60 11 -19 3 -51 9 -70 14 -19 5
-53 11 -75 14 -22 3 -51 7 -65 10 -45 8 -162 20 -293 30 -21 1 -42 -3 -47 -9z"/>
<path d="M935 2214 c-108 -23 -268 -80 -392 -140 -91 -44 -113 -58 -113 -75 0
-20 4 -21 63 -15 34 3 91 12 127 21 229 55 516 186 470 215 -19 12 -82 9 -155
-6z"/>
<path d="M1700 2150 c-8 -4 -66 -33 -127 -64 -110 -54 -197 -100 -258 -138
-16 -10 -37 -21 -45 -25 -63 -30 -389 -250 -507 -343 -100 -79 -119 -104 -88
-116 18 -7 228 94 378 183 336 199 692 452 692 492 0 18 -23 24 -45 11z"/>
<path d="M3396 2122 c-22 -21 48 -85 209 -189 44 -29 85 -57 92 -63 7 -5 14
-10 17 -10 2 0 40 -21 83 -46 43 -26 132 -73 198 -106 66 -33 128 -64 138 -69
23 -12 161 -67 215 -85 73 -25 85 5 21 57 -92 76 -392 269 -418 269 -5 0 -11
4 -13 9 -4 12 -276 143 -388 186 -115 45 -147 55 -154 47z"/>
<path d="M2111 1743 c-51 -35 -136 -135 -203 -236 -26 -40 -51 -77 -55 -82
-20 -25 -95 -178 -118 -240 -22 -57 -24 -71 -13 -81 11 -11 19 -8 49 19 46 42
151 166 175 206 10 17 22 31 26 31 4 0 8 4 8 9 0 6 13 29 29 53 45 66 119 217
133 270 15 58 4 76 -31 51z"/>
<path d="M2593 1677 c-4 -7 -8 -16 -9 -22 -10 -46 -15 -89 -18 -136 -1 -31 -5
-60 -7 -65 -15 -33 9 -695 36 -984 17 -184 31 -286 41 -302 13 -21 33 -5 38
30 17 112 25 770 12 992 -4 72 -15 211 -20 250 -6 46 -20 145 -21 150 -1 3 -5
24 -10 47 -7 42 -28 62 -42 40z"/>
<path d="M1604 1633 c-75 -40 -267 -174 -304 -213 -3 -3 -39 -34 -80 -70 -97
-85 -239 -227 -320 -320 -36 -41 -67 -77 -70 -80 -3 -3 -23 -27 -45 -55 -21
-27 -42 -52 -45 -55 -3 -3 -23 -30 -45 -60 -22 -30 -42 -57 -45 -60 -20 -17
-78 -124 -73 -136 9 -24 27 -16 129 52 132 88 227 163 388 307 204 182 416
419 512 572 10 17 21 32 24 35 12 12 40 69 40 83 0 27 -15 27 -66 0z"/>
<path d="M3550 1645 c-9 -10 -9 -19 1 -37 12 -22 85 -133 101 -153 5 -5 22
-28 39 -50 86 -112 260 -294 393 -410 37 -33 73 -65 80 -70 41 -38 195 -151
268 -199 84 -55 111 -65 123 -47 5 9 -89 155 -142 220 -15 18 -44 53 -64 77
-116 144 -378 404 -494 491 -27 20 -54 41 -60 46 -37 30 -135 96 -135 91 0 -4
-8 0 -17 8 -10 9 -32 23 -49 32 -27 13 -34 13 -44 1z"/>
<path d="M3157 1638 c-7 -23 32 -147 72 -226 64 -127 213 -342 273 -395 25
-21 49 -7 43 25 -15 76 -126 315 -202 432 -81 125 -171 205 -186 164z"/>
<path d="M2258 1448 c-65 -132 -86 -181 -132 -318 -38 -114 -108 -361 -121
-431 -2 -12 -6 -28 -9 -37 -6 -20 -10 -40 -36 -177 -28 -151 -40 -244 -43
-335 -4 -96 40 -48 114 125 110 259 244 709 274 920 3 23 7 51 10 63 2 12 7
59 10 105 4 45 8 92 10 105 5 32 -4 52 -24 52 -11 0 -29 -25 -53 -72z"/>
<path d="M2895 1469 c-6 -9 1 -118 11 -164 2 -11 6 -31 8 -45 3 -21 14 -65 52
-225 8 -31 41 -146 50 -175 3 -8 6 -17 6 -20 2 -10 76 -226 103 -300 48 -132
74 -182 93 -178 21 4 20 32 -9 183 -11 61 -23 121 -26 135 -11 63 -58 248 -95
375 -47 163 -75 240 -125 348 -34 72 -53 91 -68 66z"/>
</g>
</svg>
